<?xml version="1.0" encoding="utf-8"?>
<!-- Generator: Adobe Illustrator 25.2.3, SVG Export Plug-In . SVG Version: 6.00 Build 0)  -->
<svg version="1.1" id="Layer_1" xmlns="http://www.w3.org/2000/svg" xmlns:xlink="http://www.w3.org/1999/xlink" x="0px" y="0px"
	 viewBox="0 0 1920 1500" style="enable-background:new 0 0 1920 1500;" xml:space="preserve">
<path id="coloroutlinesvg" d="M1319,937.3l-64.4-60.6l-9.9,11.8l-0.7,0.9l5.8-131.6l-81.3-19.5l-40.4-9.6l2-54.6l34.3-4.9l1.8-47.1
	l-32.3-6.8l-71.4-69.5l-40.3,46.1l-5.4-1.1l-117.4,15l1.4-71.4l35.9-4.2l1.2-47.8l-31.4-5.6l-78.2-74.4L753.6,485L653,495.7
	l57.4,11.7l-0.7,49.4l38.7-4.5l-0.7,45.1l-35.6,40.7l-22.3-5.4l-38.3,4.9l-56.8,7.3l0.5-74.8l39.4-4.6l0.5-50l-37.4-7.8l-84.8-75.3
	l-80.4,86.7L330.2,530l54.6,12.9l0.2,51.8l42.6-5l0.2,98.6l-54.6-15.1l-42,5.4l-86.9,11.1l78.6,23.1l0,0l2.5,300.2l-77.3-30
	l-84.8,14.4l306.3,124v54.2l45.6-9.3l-0.3,103.3l37.2-8.1l0.5-102.7l44.2-9l-0.8,102.1l96.5-21.1l0.5-38.8l62.5-13.3l0.8-50.6
	l1.6-97.6l63.7,22.1l-1,51.7l41-8.3l-2.2,98.4l33.5-7.3l2.4-97.9l39.8-8.1l-2.6,97.4l87.1-19l1.6-37.2l47.2-10l1.7-48.4l3.2-93.2
	l65.9,20l-1.9,49.3l37.1-7.6l-3.8,94l30.3-6.6l3.9-93.6l36.1-7.3l-4.1,93l79-17.3l4.5-91.9l4.4-0.9l29.9-6.1l2.4-47.7L1319,937.3z
	 M528.3,578l42-4.9l-0.2,40.8l-41.9,5.2L528.3,578z M504.1,580.8l-0.2,97.6l-41.2,5.4v-98.2L504.1,580.8z M603.7,996.6l-30.4,35.2
	l-30.1-11l-42.4,7.7L416.5,997l0,0L416,850l86.6,28.4l58.8,19.3l-0.3,52.5l43-7.4L603.7,996.6z M578,825l0.9-146.1l58.5,15.3
	l-0.5,50.9l40.8-5.9l-0.6,55.6l-29.4,33l-29.4-9.1L578,825z M666.8,1178.1l-44.6,9.4l0.4-43l44.7-9.1L666.8,1178.1z M673.5,1046.5
	l0.4-0.1l-0.2-0.2l0.2,0.2l0,0l0.5,0.4L673.5,1046.5z M680,1028.4l-22.8,4.8l-18.7-15.2l1-81.4l41.7-7.2L680,1028.4z M839.9,541.6
	l38.2-4.5l-0.9,39l-38.1,4.7L839.9,541.6z M780.2,548.6l37.7-4.4l-1.7,88.3l-36.8-33.3L780.2,548.6z M773.8,725.4l40.1-5.8
	l-0.8,40.2l-40.1,6L773.8,725.4z M711.1,734.4l39.6-5.7l-1.5,96l-2.8,0.5l-36.1-30.6L711.1,734.4z M747.1,959.4l-42.2,7.5l0.5-41.6
	l42.3-7.3L747.1,959.4z M925.1,958.1l-15.7,19.7l-47.6-15.2l-38.2,6.6l2.6-143.8l63,18.2l-1.2,50.1l38.9-6.7L925.1,958.1z
	 M921.1,772l-37.2,5.8l1-48.9l2.1-91.1l61.5,14.1l-1.3,48.7l37.1-5.3l-1.9,66.2l-18.9,21.8L921.1,772z M958.9,881.5l37.8-6.5
	l-2.8,94.5l-2.8,0.5l-33.9-29.2L958.9,881.5z M997.5,1108.7l-40.3,8.4l1.2-41l40.4-8.2L997.5,1108.7z M1013.7,723.4l1-32.7l36-5.2
	l-1.1,32.3l-35.8,5.8l35.4,8.6l-1.1,35l-34.7-32L1013.7,723.4z M1055.8,904.1l-38.3,6.8l1.2-39.8l38.4-6.6L1055.8,904.1z
	 M1107,715.7l-20.7,3.1l-14.6-3.5l-1.1-0.2l1.1-32.6l36.6-5.3L1107,715.7z M1225.7,911.4L1225.7,911.4h0.2H1225.7z M1296.8,1045.8
	l-36.5,7.7l1.8-39.2l36.6-7.5L1296.8,1045.8z"/>
</svg>
