<?xml version="1.0" encoding="utf-8"?>
<svg version="1.1" xmlns="http://www.w3.org/2000/svg" xmlns:xlink="http://www.w3.org/1999/xlink" x="0px" y="0px"
	 viewBox="0 0 1920 1500" style="enable-background:new 0 0 1920 1500;" xml:space="preserve">
<style type="text/css">
	.st0{fill:none;stroke:#000000;stroke-width:3;stroke-linecap:round;stroke-linejoin:round;}
	.st1{fill:#969696;}
	.st2{fill:none;stroke:#000000;stroke-width:4;stroke-linecap:round;stroke-linejoin:round;}
</style>
<g id="upright_card">
	<polygon class="st0" points="1158.86,953.31 1195.81,13.66 5.47,57.83 33.47,1167.26 697.86,1487.98 1914.03,1174.31 	"/>
	<line class="st0" x1="1158.86" y1="953.31" x2="33.47" y2="1167.26"/>
</g>
<g id="color_outline">
	<path class="st1" d="M1319.04,937.27l-64.45-60.56l-9.88,11.83l-0.74,0.89l5.76-131.62l-81.31-19.45l-40.38-9.62l2.02-54.6
		l34.33-4.94l1.83-47.06l-32.27-6.75l-71.37-69.49l-40.35,46.13l-5.42-1.13l-117.43,14.99l1.41-71.42l35.88-4.19l1.24-47.79
		l-31.44-5.62l-78.2-74.4l-74.69,82.49l-100.64,10.74l57.38,11.68l-0.66,49.43l38.74-4.53l-0.7,45.14l-35.62,40.72l-22.33-5.37
		l-38.26,4.9l-56.85,7.28l0.52-74.76l39.38-4.6l0.45-49.97l-37.41-7.84l-84.81-75.29l-80.39,86.73l-102.26,10.91l54.63,12.86
		l0.25,51.76l42.65-4.98l0.24,98.63l-54.57-15.11l-42.02,5.38l-86.92,11.13l78.55,23.09l0.01,0l2.5,300.17l-77.31-30.08l-84.83,14.4
		l306.27,124.01l0,54.24l45.59-9.28l-0.28,103.26l37.18-8.13l0.5-102.74l44.21-9l-0.76,102.12l96.45-21.1l0.51-38.79l62.54-13.31
		l0.83-50.64l1.6-97.58l63.72,22.11l-1.05,51.65l41.03-8.35l-2.23,98.41l33.51-7.33l2.41-97.93l39.84-8.11l-2.62,97.37l87.06-19.04
		l1.57-37.2l47.21-9.96l1.66-48.4l3.2-93.22l65.93,20.01l-1.89,49.3l37.13-7.56l-3.81,93.99l30.35-6.64l3.95-93.56l36.08-7.34
		l-4.12,93.04l78.98-17.28l4.49-91.91l4.4-0.9l29.94-6.09l2.42-47.67L1319.04,937.27z M528.27,578.01l41.99-4.91l-0.22,40.81
		l-41.89,5.15L528.27,578.01z M504.12,580.83l-0.18,97.59l-41.2,5.41l-0.05-98.16L504.12,580.83z M603.74,996.63l-30.44,35.15
		l-30.06-11.01l-42.37,7.74l-84.34-31.47l-0.01,0l-0.45-146.98l86.6,28.39l58.76,19.27l-0.27,52.5l42.99-7.43L603.74,996.63z
		 M577.99,825.04l0.89-146.13l58.45,15.31l-0.47,50.91l40.76-5.87l-0.64,55.59l-29.37,33.05l-29.39-9.07L577.99,825.04z
		 M666.78,1178.11l-44.63,9.37l0.38-42.97l44.73-9.1L666.78,1178.11z M673.46,1046.51l0.38-0.07l-0.2-0.16l0.2,0.16h0l0.49,0.39
		L673.46,1046.51z M679.99,1028.42l-22.85,4.83l-18.68-15.17l0.98-81.38l41.73-7.21L679.99,1028.42z M839.88,541.58l38.22-4.47
		l-0.88,39.03l-38.14,4.69L839.88,541.58z M780.23,548.56l37.67-4.4l-1.7,88.34l-36.84-33.28L780.23,548.56z M773.77,725.42
		l40.14-5.78l-0.77,40.16l-40.06,6.01L773.77,725.42z M711.08,734.44l39.6-5.7l-1.5,96.01l-2.83,0.45l-36.08-30.63L711.08,734.44z
		 M747.11,959.36l-42.17,7.55l0.55-41.63l42.27-7.3L747.11,959.36z M925.06,958.06l-15.72,19.68l-47.59-15.17l-38.15,6.64
		l2.58-143.8l62.97,18.25l-1.19,50.1l38.93-6.73L925.06,958.06z M921.12,772.01l-37.18,5.75l0.97-48.94l2.12-91.09l61.49,14.08
		l-1.3,48.65l37.06-5.33l-1.91,66.16l-18.92,21.85L921.12,772.01z M958.87,881.51l37.83-6.54l-2.82,94.53l-2.77,0.53l-33.88-29.25
		L958.87,881.51z M997.53,1108.67l-40.27,8.45l1.16-40.97l40.36-8.21L997.53,1108.67z M1013.72,723.4l1-32.66l36.04-5.19l-1.05,32.3
		l-35.83,5.78l35.36,8.62l-1.14,35.01l-34.74-31.97L1013.72,723.4z M1055.8,904.08l-38.28,6.85l1.24-39.77l38.36-6.63L1055.8,904.08
		z M1106.97,715.7l-20.68,3.1l-14.56-3.47l-1.05-0.25l1.1-32.56l36.57-5.26L1106.97,715.7z M1225.66,911.36l0.05-0.06l0.13,0.11
		L1225.66,911.36z M1296.82,1045.85l-36.52,7.67l1.78-39.15l36.59-7.45L1296.82,1045.85z"/>
</g>
<g id="popup_outline">
	<line class="st0" x1="914.68" y1="485.02" x2="828.27" y2="402.47"/>
	<line class="st0" x1="887.03" y1="637.72" x2="884.91" y2="728.81"/>
	<line class="st0" x1="824.29" y1="919.51" x2="823.3" y2="968.91"/>
	<line class="st0" x1="1060.54" y1="1055.38" x2="1062.24" y2="1005.51"/>
	<line class="st0" x1="884.91" y1="728.81" x2="883.79" y2="776.82"/>
	<line class="st0" x1="577.99" y1="825.04" x2="578.88" y2="678.91"/>
	<line class="st0" x1="416.52" y1="997.04" x2="416.07" y2="850.06"/>
	<line class="st0" x1="322.97" y1="712.89" x2="325.46" y2="1013.06"/>
	<line class="st0" x1="1238.01" y1="1025.71" x2="1204.88" y2="1032.49"/>
	<line class="st0" x1="1249.71" y1="757.89" x2="1243.96" y2="889.43"/>
	<line class="st0" x1="373.35" y1="673.29" x2="427.92" y2="688.4"/>
	<polyline class="st0" points="244.41,689.8 331.32,678.67 373.35,673.29 	"/>
	<line class="st0" x1="322.96" y1="712.89" x2="244.41" y2="689.8"/>
	<line class="st0" x1="578.86" y1="678.9" x2="322.96" y2="712.89"/>
	<line class="st0" x1="637.32" y1="694.21" x2="578.86" y2="678.9"/>
	<line class="st0" x1="887.03" y1="637.72" x2="830.42" y2="645.24"/>
	<line class="st0" x1="948.51" y1="651.81" x2="887.03" y2="637.72"/>
	<line class="st0" x1="1016.81" y1="590.89" x2="1022.23" y2="592.03"/>
	<line class="st0" x1="689.76" y1="632.77" x2="712.09" y2="638.14"/>
	<line class="st0" x1="757.97" y1="1030.44" x2="756.37" y2="1128.02"/>
	<line class="st0" x1="756.37" y1="1128.02" x2="755.53" y2="1178.66"/>
	<line class="st0" x1="552.08" y1="1261.48" x2="552.59" y2="1158.74"/>
	<line class="st0" x1="552.59" y1="1158.74" x2="596.79" y2="1149.75"/>
	<line class="st0" x1="596.79" y1="1149.75" x2="596.03" y2="1251.87"/>
	<line class="st0" x1="693.8" y1="1130.01" x2="735.69" y2="1121.48"/>
	<line class="st0" x1="735.69" y1="1121.48" x2="736.5" y2="1069.2"/>
	<line class="st0" x1="622.16" y1="1187.47" x2="666.78" y2="1178.11"/>
	<line class="st0" x1="514.9" y1="1269.61" x2="552.08" y2="1261.48"/>
	<line class="st0" x1="758.9" y1="835.85" x2="826.19" y2="825.05"/>
	<line class="st0" x1="1184.76" y1="960.34" x2="1193.86" y2="949.44"/>
	<line class="st0" x1="416.07" y1="850.06" x2="618.2" y2="818.82"/>
	<line class="st0" x1="1168.42" y1="738.36" x2="1249.74" y2="757.72"/>
	<line class="st0" x1="1249.74" y1="757.72" x2="1165.99" y2="771.17"/>
	<line class="st0" x1="747.11" y1="959.36" x2="747.76" y2="917.98"/>
	<line class="st0" x1="787.78" y1="860.38" x2="691.42" y2="778.57"/>
	<line class="st0" x1="589.66" y1="893.06" x2="691.42" y2="778.57"/>
	<line class="st0" x1="771.16" y1="1011.31" x2="772.83" y2="913.65"/>
	<line class="st0" x1="998.77" y1="1067.95" x2="958.42" y2="1076.16"/>
	<line class="st0" x1="1037.75" y1="1010.3" x2="947.24" y2="932.16"/>
	<line class="st0" x1="848.64" y1="1047.28" x2="947.24" y2="932.16"/>
	<line class="st0" x1="957.26" y1="1117.13" x2="997.53" y2="1108.67"/>
	<line class="st0" x1="1019.65" y1="1159.21" x2="1022.71" y2="1063.08"/>
	<line class="st0" x1="1193.86" y1="949.44" x2="1244.71" y2="888.54"/>
	<line class="st0" x1="1204.96" y1="1025.99" x2="1241.04" y2="1018.65"/>
	<line class="st0" x1="1201" y1="1119.54" x2="1204.96" y2="1025.99"/>
	<line class="st0" x1="1143.99" y1="625.17" x2="1062.58" y2="545.9"/>
	<line class="st0" x1="972.84" y1="648.49" x2="1062.58" y2="545.9"/>
	<line class="st0" x1="1070.48" y1="721.17" x2="1106.97" y2="715.69"/>
	<line class="st0" x1="1126.7" y1="764.89" x2="1130.06" y2="674.14"/>
	<line class="st0" x1="1050.76" y1="685.55" x2="1048.1" y2="767.26"/>
	<line class="st0" x1="1013.36" y1="735.29" x2="1013.73" y2="723.21"/>
	<line class="st0" x1="1057.11" y1="864.53" x2="1018.76" y2="871.16"/>
	<line class="st0" x1="1094.33" y1="809.8" x2="1008.63" y2="730.93"/>
	<line class="st0" x1="914.71" y1="839.44" x2="1008.63" y2="730.93"/>
	<line class="st0" x1="1017.52" y1="910.93" x2="1055.8" y2="904.08"/>
	<line class="st0" x1="1076.65" y1="953.97" x2="1079.87" y2="860.6"/>
	<line class="st0" x1="816.11" y1="637.44" x2="898.58" y2="626.62"/>
	<line class="st0" x1="735.75" y1="504.6" x2="828.27" y2="402.47"/>
	<line class="st0" x1="898.58" y1="626.62" x2="900.79" y2="534.46"/>
	<line class="st0" x1="817.91" y1="544.15" x2="816.11" y2="637.44"/>
	<line class="st0" x1="657.64" y1="1032.62" x2="771.16" y2="1011.31"/>
	<line class="st0" x1="991.12" y1="970.02" x2="1076.65" y2="953.97"/>
	<line class="st0" x1="469.59" y1="1121.4" x2="163.32" y2="997.39"/>
	<line class="st0" x1="852.13" y1="664.94" x2="760.99" y2="582.62"/>
	<line class="st0" x1="664.08" y1="690.57" x2="760.99" y2="582.62"/>
	<line class="st0" x1="835.78" y1="811.02" x2="837.73" y2="716.21"/>
	<line class="st0" x1="609.51" y1="518.41" x2="512.8" y2="432.49"/>
	<line class="st0" x1="412.79" y1="539.93" x2="512.8" y2="432.49"/>
	<line class="st0" x1="594.51" y1="666.53" x2="595.18" y2="570.19"/>
	<line class="st0" x1="709.37" y1="1074.51" x2="606.91" y2="993.57"/>
	<line class="st0" x1="499.55" y1="1115.54" x2="606.91" y2="993.57"/>
	<line class="st0" x1="692.49" y1="1230.77" x2="693.8" y2="1130.01"/>
	<line class="st0" x1="427.92" y1="688.4" x2="594.51" y2="666.53"/>
	<line class="st0" x1="1013.88" y1="723.63" x2="1012.78" y2="723.36"/>
	<line class="st0" x1="1013.73" y1="723.21" x2="1049.71" y2="717.85"/>
	<line class="st0" x1="1071.73" y1="715.33" x2="1086.29" y2="718.8"/>
	<line class="st0" x1="1070.68" y1="715.08" x2="1070.64" y2="716.43"/>
	<line class="st0" x1="1070.64" y1="716.43" x2="1070.48" y2="721.17"/>
	<line class="st0" x1="1013.73" y1="723.21" x2="1014.72" y2="690.74"/>
	<line class="st0" x1="749.18" y1="824.75" x2="835.78" y2="811.02"/>
	<line class="st0" x1="837.4" y1="784.94" x2="883.94" y2="777.75"/>
	<line class="st0" x1="883.94" y1="777.75" x2="921.12" y2="772.01"/>
	<line class="st0" x1="638.67" y1="1017.82" x2="639.44" y2="936.7"/>
	<line class="st0" x1="1324.78" y1="1001.61" x2="1354.72" y2="995.51"/>
	<line class="st0" x1="1319.04" y1="937.27" x2="1254.59" y2="876.71"/>
	<line class="st0" x1="1244.71" y1="888.54" x2="1254.59" y2="876.71"/>
	<line class="st0" x1="779.36" y1="599.21" x2="780.23" y2="548.56"/>
	<line class="st0" x1="1078.28" y1="922.99" x2="1192.4" y2="902.13"/>
	<line class="st0" x1="883.33" y1="1007.57" x2="881.33" y2="1007.54"/>
	<line class="st0" x1="1319.04" y1="937.27" x2="1357.14" y2="947.84"/>
	<line class="st0" x1="1238.3" y1="1019.2" x2="1238.01" y2="1025.71"/>
	<line class="st0" x1="1015.79" y1="990.95" x2="1062.24" y2="1005.51"/>
	<line class="st0" x1="1006.9" y1="983.08" x2="1073.3" y2="970.44"/>
	<line class="st0" x1="1021.6" y1="1122.03" x2="1068.43" y2="1112.06"/>
	<line class="st0" x1="993.06" y1="1109.61" x2="993.97" y2="1079.28"/>
	<line class="st0" x1="710.27" y1="794.57" x2="711.08" y2="734.44"/>
	<line class="st0" x1="899.68" y1="605.89" x2="1016.81" y2="590.89"/>
	<line class="st0" x1="1133.95" y1="615.39" x2="1166.22" y2="622.14"/>
	<line class="st0" x1="1049.32" y1="905.24" x2="1050.61" y2="865.66"/>
	<line class="st0" x1="1069.05" y1="786.91" x2="1166.02" y2="771.33"/>
	<line class="st0" x1="771.84" y1="978.31" x2="823.3" y2="968.91"/>
	<line class="st0" x1="1049.24" y1="732.25" x2="1013.88" y2="723.63"/>
	<line class="st0" x1="1012.78" y1="723.36" x2="1013.73" y2="723.21"/>
	<line class="st0" x1="1069.75" y1="714.86" x2="1071.73" y2="715.33"/>
	<line class="st0" x1="1071.78" y1="682.53" x2="1070.68" y2="715.08"/>
	<line class="st0" x1="766.08" y1="842.24" x2="813.44" y2="856.15"/>
	<line class="st0" x1="1079.44" y1="796.09" x2="1117.63" y2="805.96"/>
	<line class="st0" x1="1057.84" y1="775.81" x2="1126.7" y2="764.89"/>
	<line class="st0" x1="1128.04" y1="728.74" x2="1168.42" y2="738.36"/>
	<line class="st0" x1="957.23" y1="940.79" x2="958.87" y2="881.51"/>
	<line class="st0" x1="746.35" y1="825.2" x2="749.18" y2="824.75"/>
	<line class="st0" x1="1117.63" y1="805.96" x2="1094.33" y2="809.8"/>
	<line class="st0" x1="914.71" y1="839.44" x2="889.15" y2="843.65"/>
	<line class="st0" x1="889.15" y1="843.65" x2="826.18" y2="825.75"/>
	<line class="st0" x1="813.44" y1="856.15" x2="787.78" y2="860.38"/>
	<line class="st0" x1="589.66" y1="893.06" x2="561.42" y2="897.72"/>
	<polyline class="st0" points="561.42,897.72 502.66,878.46 416.07,850.06"/>
	<line class="st0" x1="618.2" y1="818.82" x2="647.13" y2="827.49"/>
	<line class="st0" x1="921.12" y1="772.01" x2="963.45" y2="783.13"/>
	<line class="st0" x1="747.76" y1="917.98" x2="705.49" y2="925.28"/>
	<line class="st0" x1="705.49" y1="925.28" x2="704.94" y2="966.91"/>
	<line class="st0" x1="604.15" y1="942.79" x2="603.74" y2="996.63"/>
	<line class="st0" x1="561.15" y1="950.22" x2="604.15" y2="942.79"/>
	<line class="st0" x1="561.42" y1="897.72" x2="561.15" y2="950.22"/>
	<line class="st0" x1="704.94" y1="966.91" x2="747.11" y2="959.36"/>
	<line class="st0" x1="812.45" y1="906.8" x2="813.44" y2="856.15"/>
	<line class="st0" x1="772.83" y1="913.65" x2="812.45" y2="906.8"/>
	<line class="st0" x1="681.17" y1="929.49" x2="679.99" y2="1028.42"/>
	<line class="st0" x1="639.44" y1="936.7" x2="681.17" y2="929.49"/>
	<line class="st0" x1="997.53" y1="1108.67" x2="998.77" y2="1067.95"/>
	<line class="st0" x1="958.42" y1="1076.16" x2="957.26" y2="1117.13"/>
	<line class="st0" x1="861.68" y1="1095.85" x2="859.45" y2="1194.25"/>
	<line class="st0" x1="820.64" y1="1104.2" x2="861.68" y2="1095.85"/>
	<line class="st0" x1="821.69" y1="1052.55" x2="820.64" y2="1104.2"/>
	<line class="st0" x1="932.58" y1="1178.25" x2="1019.65" y2="1159.21"/>
	<line class="st0" x1="859.45" y1="1194.25" x2="892.95" y2="1186.92"/>
	<line class="st0" x1="1037.75" y1="1010.3" x2="1062.24" y2="1005.51"/>
	<line class="st0" x1="848.64" y1="1047.28" x2="821.69" y2="1052.55"/>
	<line class="st0" x1="826.18" y1="825.75" x2="824.29" y2="919.51"/>
	<line class="st0" x1="1022.71" y1="1063.08" x2="1060.54" y2="1055.38"/>
	<line class="st0" x1="935.2" y1="1080.88" x2="932.58" y2="1178.25"/>
	<line class="st0" x1="895.36" y1="1088.99" x2="935.2" y2="1080.88"/>
	<line class="st0" x1="892.95" y1="1186.92" x2="895.36" y2="1088.99"/>
	<line class="st0" x1="1296.82" y1="1045.85" x2="1298.67" y2="1006.92"/>
	<line class="st0" x1="1298.67" y1="1006.92" x2="1262.08" y2="1014.37"/>
	<line class="st0" x1="1262.08" y1="1014.37" x2="1260.3" y2="1053.51"/>
	<line class="st0" x1="1354.72" y1="995.51" x2="1357.14" y2="947.84"/>
	<line class="st0" x1="1320.38" y1="1002.5" x2="1324.78" y2="1001.61"/>
	<line class="st0" x1="1315.9" y1="1094.41" x2="1320.38" y2="1002.5"/>
	<line class="st0" x1="1174.46" y1="1032.2" x2="1170.65" y2="1126.18"/>
	<line class="st0" x1="1137.33" y1="1039.75" x2="1174.46" y2="1032.2"/>
	<line class="st0" x1="1139.23" y1="990.45" x2="1137.33" y2="1039.75"/>
	<line class="st0" x1="1236.92" y1="1111.69" x2="1315.9" y2="1094.41"/>
	<line class="st0" x1="1170.65" y1="1126.18" x2="1201" y2="1119.54"/>
	<line class="st0" x1="1334.91" y1="952.19" x2="1319.04" y2="937.27"/>
	<line class="st0" x1="1163.6" y1="985.69" x2="1184.76" y2="960.34"/>
	<line class="st0" x1="1260.3" y1="1053.51" x2="1296.82" y2="1045.85"/>
	<line class="st0" x1="1241.04" y1="1018.65" x2="1236.92" y2="1111.69"/>
	<line class="st0" x1="1106.97" y1="715.69" x2="1108.35" y2="677.27"/>
	<line class="st0" x1="1108.35" y1="677.27" x2="1071.78" y2="682.53"/>
	<line class="st0" x1="984.27" y1="695.12" x2="982.36" y2="761.28"/>
	<line class="st0" x1="947.21" y1="700.45" x2="984.27" y2="695.12"/>
	<line class="st0" x1="948.51" y1="651.81" x2="947.21" y2="700.45"/>
	<line class="st0" x1="1143.99" y1="625.17" x2="1166.22" y2="622.14"/>
	<line class="st0" x1="972.84" y1="648.49" x2="948.51" y2="651.81"/>
	<line class="st0" x1="1164.39" y1="669.2" x2="1166.22" y2="622.14"/>
	<line class="st0" x1="1130.06" y1="674.14" x2="1164.39" y2="669.2"/>
	<line class="st0" x1="1014.72" y1="690.74" x2="1050.76" y2="685.55"/>
	<line class="st0" x1="1055.8" y1="904.08" x2="1057.11" y2="864.53"/>
	<line class="st0" x1="1018.76" y1="871.16" x2="1017.52" y2="910.93"/>
	<line class="st0" x1="926.89" y1="887.03" x2="925.06" y2="958.06"/>
	<line class="st0" x1="887.96" y1="893.76" x2="926.89" y2="887.03"/>
	<line class="st0" x1="889.15" y1="843.65" x2="887.96" y2="893.76"/>
	<line class="st0" x1="1115.86" y1="854.38" x2="1117.63" y2="805.96"/>
	<line class="st0" x1="1079.87" y1="860.6" x2="1115.86" y2="854.38"/>
	<line class="st0" x1="996.7" y1="874.97" x2="993.88" y2="969.5"/>
	<line class="st0" x1="958.87" y1="881.51" x2="996.7" y2="874.97"/>
	<line class="st0" x1="877.22" y1="576.14" x2="878.1" y2="537.12"/>
	<line class="st0" x1="878.1" y1="537.12" x2="839.88" y2="541.58"/>
	<line class="st0" x1="839.88" y1="541.58" x2="839.07" y2="580.83"/>
	<line class="st0" x1="748.4" y1="552.28" x2="747.71" y2="597.42"/>
	<line class="st0" x1="709.66" y1="556.8" x2="748.4" y2="552.28"/>
	<line class="st0" x1="710.32" y1="507.38" x2="709.66" y2="556.8"/>
	<line class="st0" x1="914.68" y1="485.02" x2="937.91" y2="482.48"/>
	<line class="st0" x1="839.07" y1="580.83" x2="877.22" y2="576.14"/>
	<line class="st0" x1="936.67" y1="530.27" x2="937.91" y2="482.48"/>
	<line class="st0" x1="900.79" y1="534.46" x2="936.67" y2="530.27"/>
	<line class="st0" x1="780.23" y1="548.56" x2="817.91" y2="544.15"/>
	<line class="st0" x1="813.14" y1="759.8" x2="813.91" y2="719.64"/>
	<line class="st0" x1="823.42" y1="969.57" x2="861.75" y2="962.56"/>
	<line class="st0" x1="838.51" y1="652.65" x2="876.51" y2="661.62"/>
	<line class="st0" x1="416.53" y1="997.05" x2="500.87" y2="1028.52"/>
	<line class="st0" x1="500.87" y1="1028.52" x2="543.24" y2="1020.77"/>
	<line class="st0" x1="543.24" y1="1020.77" x2="573.33" y2="1031.79"/>
	<line class="st0" x1="861.75" y1="962.56" x2="909.34" y2="977.73"/>
	<line class="st0" x1="1192.4" y1="902.13" x2="1225.83" y2="911.41"/>
	<line class="st0" x1="1357.14" y1="947.84" x2="1334.91" y2="952.19"/>
	<line class="st0" x1="1163.6" y1="985.69" x2="1139.23" y2="990.45"/>
	<line class="st0" x1="1139.23" y1="990.45" x2="1073.3" y2="970.44"/>
	<line class="st0" x1="821.69" y1="1052.55" x2="757.97" y2="1030.44"/>
	<line class="st0" x1="757.97" y1="1030.44" x2="673.46" y2="1046.51"/>
	<line class="st0" x1="673.46" y1="1046.51" x2="736.5" y2="1069.2"/>
	<line class="st0" x1="736.5" y1="1069.2" x2="709.37" y2="1074.51"/>
	<line class="st0" x1="499.55" y1="1115.54" x2="469.59" y2="1121.4"/>
	<line class="st0" x1="163.32" y1="997.39" x2="248.16" y2="982.99"/>
	<line class="st0" x1="248.16" y1="982.99" x2="325.48" y2="1013.07"/>
	<line class="st0" x1="325.48" y1="1013.07" x2="416.53" y2="997.05"/>
	<line class="st0" x1="1070.09" y1="1063.66" x2="1068.43" y2="1112.06"/>
	<line class="st0" x1="1073.3" y1="970.44" x2="1070.09" y2="1063.66"/>
	<line class="st0" x1="993.97" y1="1079.28" x2="994.28" y2="1068.86"/>
	<line class="st0" x1="813.91" y1="719.64" x2="773.77" y2="725.42"/>
	<line class="st0" x1="773.77" y1="725.42" x2="773.08" y2="765.81"/>
	<line class="st0" x1="677.6" y1="739.26" x2="676.96" y2="794.84"/>
	<line class="st0" x1="636.84" y1="745.12" x2="677.6" y2="739.26"/>
	<line class="st0" x1="637.32" y1="694.21" x2="636.84" y2="745.12"/>
	<line class="st0" x1="852.13" y1="664.94" x2="876.51" y2="661.62"/>
	<line class="st0" x1="664.08" y1="690.57" x2="637.32" y2="694.21"/>
	<line class="st0" x1="773.08" y1="765.81" x2="813.14" y2="759.8"/>
	<line class="st0" x1="875.39" y1="710.79" x2="876.51" y2="661.62"/>
	<line class="st0" x1="837.73" y1="716.21" x2="875.39" y2="710.79"/>
	<line class="st0" x1="750.68" y1="728.74" x2="749.17" y2="824.75"/>
	<line class="st0" x1="711.08" y1="734.44" x2="750.68" y2="728.74"/>
	<line class="st0" x1="330.15" y1="530.13" x2="432.79" y2="519.18"/>
	<line class="st0" x1="330.15" y1="530.13" x2="384.78" y2="542.99"/>
	<line class="st0" x1="635.02" y1="515.62" x2="597.63" y2="507.75"/>
	<line class="st0" x1="652.94" y1="495.69" x2="753.62" y2="484.95"/>
	<line class="st0" x1="652.94" y1="495.69" x2="710.32" y2="507.38"/>
	<line class="st0" x1="735.75" y1="504.6" x2="710.32" y2="507.38"/>
	<line class="st0" x1="937.91" y1="482.48" x2="906.62" y2="476.7"/>
	<line class="st0" x1="692.99" y1="1191.98" x2="755.53" y2="1178.66"/>
	<polyline class="st0" points="594.66,644.95 651.51,637.67 689.76,632.77 	"/>
	<line class="st0" x1="570.04" y1="613.91" x2="570.26" y2="573.1"/>
	<line class="st0" x1="570.26" y1="573.1" x2="528.27" y2="578.01"/>
	<line class="st0" x1="528.27" y1="578.01" x2="528.15" y2="619.06"/>
	<line class="st0" x1="427.68" y1="589.77" x2="427.92" y2="688.4"/>
	<line class="st0" x1="385.03" y1="594.75" x2="427.68" y2="589.77"/>
	<line class="st0" x1="384.78" y1="542.99" x2="385.03" y2="594.75"/>
	<line class="st0" x1="609.51" y1="518.41" x2="635.02" y2="515.62"/>
	<line class="st0" x1="412.79" y1="539.93" x2="384.78" y2="542.99"/>
	<line class="st0" x1="528.15" y1="619.06" x2="570.04" y2="613.91"/>
	<line class="st0" x1="634.56" y1="565.58" x2="635.02" y2="515.62"/>
	<line class="st0" x1="595.18" y1="570.19" x2="634.56" y2="565.58"/>
	<line class="st0" x1="504.13" y1="580.83" x2="503.95" y2="678.42"/>
	<line class="st0" x1="462.7" y1="585.67" x2="504.13" y2="580.83"/>
	<line class="st0" x1="462.75" y1="683.83" x2="462.7" y2="585.67"/>
	<line class="st0" x1="666.78" y1="1178.11" x2="667.28" y2="1135.41"/>
	<line class="st0" x1="667.28" y1="1135.41" x2="622.54" y2="1144.51"/>
	<line class="st0" x1="622.54" y1="1144.51" x2="622.16" y2="1187.47"/>
	<line class="st0" x1="515.18" y1="1166.36" x2="514.9" y2="1269.61"/>
	<line class="st0" x1="469.59" y1="1175.63" x2="515.18" y2="1166.36"/>
	<line class="st0" x1="469.59" y1="1121.4" x2="469.59" y2="1175.63"/>
	<line class="st0" x1="596.03" y1="1251.87" x2="692.49" y2="1230.77"/>
</g>
<g id="logosvg">
	<line class="st0" x1="440.1" y1="149.96" x2="721.88" y2="371.02"/>
	<polygon class="st0" points="721.88,139.51 721.88,371.02 440.1,392.93 440.1,149.96 	"/>
	<line class="st0" x1="440.1" y1="392.93" x2="721.88" y2="139.51"/>
</g>
<g id="messagesvg">
	<line class="st2" x1="925.06" y1="1319.49" x2="1457.43" y2="1182.19"/>
	<line class="st2" x1="964.34" y1="1363.39" x2="1496.7" y2="1226.08"/>
</g>
</svg>
