<?xml version="1.0" encoding="utf-8"?>
<!-- Generator: Adobe Illustrator 25.2.1, SVG Export Plug-In . SVG Version: 6.00 Build 0)  -->
<svg version="1.1" xmlns="http://www.w3.org/2000/svg" xmlns:xlink="http://www.w3.org/1999/xlink" x="0px" y="0px"
	 viewBox="0 0 1920 1500" style="enable-background:new 0 0 1920 1500;" xml:space="preserve">
<style type="text/css">
	.st3{fill:none;stroke:#FFFFFF;stroke-width:5;stroke-miterlimit:10;}
	.st4{fill:none;stroke:#FFFFFF;stroke-width:5;stroke-linecap:round;stroke-linejoin:round;}
</style>
	<path id="coloroutlinesvg" style="fill:#969696;"  
		d="M1535.98,662.9l-1.03-122.38h61.51v-63.31h-39.8l-148.55-119.2l-124.5,99.9V354.83h61.51v-63.31h-39.8
		l-148.55-119.2l-148.55,119.2h-40.92v63.31h62.63v98.63l-118.95-95.45L787.34,457.2V354.83h60.62v-63.31h-39.8l-148.55-119.2
		l-148.55,119.2h-40.92v63.31h62.63v122.38H342.97v305.35l-82.29,66.03h-40.92v63.31h62.63v122.38h52.01V911.9h62.22v122.38h139.46
		V911.9h61.51v122.38h127.16V911.9h62.63v122.38h52.01V911.9h62.22v122.38h139.46V911.9h61.51v122.38h127.16V911.9h62.63v122.38
		h52.01V911.9h62.22v122.38h139.46V911.9h61.51v122.14h94.41V662.9H1535.98z M497.55,963.4h-64.3v-51.5h64.3V963.4z M584.77,354.83
		h63.52v122.38h-63.52V354.83z M653.59,848.59h-62.22V726.21h62.22V848.59z M683.62,354.83h64.3v51.5h-64.3V354.83z M754.52,777.71
		h-64.3v-51.5h64.3V777.71z M898.34,662.9h-62.22V540.52h62.22V662.9z M934.96,540.52h64.3v51.5h-64.3V540.52z M1002.53,963.4h-64.3
		v-51.5h64.3V963.4z M1081.92,354.83h62.22v122.38h-62.22V354.83z M1150.74,848.59h-62.22V726.21h62.22V848.59z M1180.76,354.83
		h64.3v51.5h-64.3V354.83z M1251.67,777.71h-64.3v-51.5h64.3V777.71z M1395.49,662.9h-62.22V540.52h62.22V662.9z M1432.11,540.52
		h64.3v51.5h-64.3V540.52z M1507.52,963.4h-64.3v-51.5h64.3V963.4z"/>

<g id="popup_outline">
	<path class="st3" d="M1535.98,662.78l-1.03-122.38h61.51v-63.31h-39.8l-148.55-119.2l-124.5,99.9V354.71h61.51V291.4h-39.8
		l-148.55-119.2l-148.55,119.2h-40.92v63.31h62.63v98.63L910.96,357.9l-123.62,99.19V354.71h60.62V291.4h-39.8l-148.55-119.2
		L511.06,291.4h-40.92v63.31h62.63v122.38H342.98v305.35l-82.29,66.03h-40.92v63.31h62.63v122.38h52.01V911.78h62.22v122.38h139.46
		V911.78h61.51v122.38h127.16V911.78h62.63v122.38h52.01V911.78h62.22v122.38h139.46V911.78h61.51v122.38h127.16V911.78h62.63
		v122.38h52.01V911.78h62.22v122.38h139.46V911.78h61.51v122.14h94.41V662.78H1535.98z"/>
	<line class="st4" x1="973.88" y1="725.66" x2="973.88" y2="777.26"/>
	<line class="st4" x1="1099.31" y1="594.84" x2="1099.31" y2="539.41"/>
	<line class="st4" x1="897.85" y1="662.9" x2="972.58" y2="662.9"/>
	<line class="st4" x1="972.58" y1="662.9" x2="973.88" y2="662.9"/>
	<line class="st4" x1="476.73" y1="783.55" x2="409.23" y2="729.39"/>
	<line class="st4" x1="1284.65" y1="457.07" x2="1408.1" y2="358.01"/>
	<line class="st4" x1="835.28" y1="662.9" x2="854.56" y2="662.9"/>
	<line class="st4" x1="784.11" y1="638.3" x2="721.48" y2="588.05"/>
	<line class="st4" x1="721.48" y1="588.05" x2="666.21" y2="543.7"/>
	<line class="st4" x1="793.05" y1="826.62" x2="793.05" y2="726.21"/>
	<line class="st4" x1="1291.15" y1="832.14" x2="1352.57" y2="782.86"/>
	<line class="st4" x1="1352.57" y1="782.86" x2="1419.21" y2="729.39"/>
	<line class="st4" x1="343.16" y1="782.41" x2="409.23" y2="729.39"/>
	<line class="st4" x1="786.45" y1="457.91" x2="786.45" y2="354.83"/>
	<line class="st4" x1="1149.84" y1="848.59" x2="1229.73" y2="848.59"/>
	<line class="st4" x1="1143.6" y1="477.21" x2="1099.31" y2="477.21"/>
	<line class="st4" x1="973.88" y1="777.26" x2="914.22" y2="729.39"/>
	<line class="st4" x1="1099.62" y1="594.84" x2="1163.35" y2="543.7"/>
	<line class="st4" x1="1535.98" y1="662.9" x2="1395.47" y2="662.9"/>
	<line class="st4" x1="1395.47" y1="662.9" x2="1351.7" y2="662.9"/>
	<line class="st4" x1="787.34" y1="457.2" x2="910.95" y2="358.01"/>
	<line class="st4" x1="476.73" y1="782.21" x2="476.73" y2="725.69"/>
	<line class="st4" x1="721.48" y1="588.05" x2="721.48" y2="540.45"/>
	<line class="st4" x1="648.29" y1="477.21" x2="585.99" y2="477.21"/>
	<line class="st4" x1="585.99" y1="477.21" x2="532.08" y2="477.21"/>
	<line class="st4" x1="532.08" y1="477.21" x2="342.97" y2="477.21"/>
	<line class="st4" x1="973.88" y1="663.38" x2="973.88" y2="726.21"/>
	<line class="st4" x1="1333.27" y1="662.9" x2="1351.71" y2="662.9"/>
	<line class="st4" x1="1281.25" y1="638.3" x2="1218.75" y2="588.16"/>
	<line class="st4" x1="1218.75" y1="588.16" x2="1163.35" y2="543.7"/>
	<line class="st4" x1="1290.2" y1="832.9" x2="1290.2" y2="726.21"/>
	<line class="st4" x1="652.48" y1="848.59" x2="724.74" y2="848.59"/>
	<line class="st4" x1="1283.6" y1="457.91" x2="1283.6" y2="354.83"/>
	<line class="st4" x1="1351.71" y1="783.55" x2="1351.71" y2="727.23"/>
	<line class="st4" x1="793.76" y1="826.05" x2="855.18" y2="776.77"/>
	<line class="st4" x1="855.18" y1="776.77" x2="914.22" y2="729.39"/>
	<line class="st4" x1="854.56" y1="662.9" x2="897.85" y2="662.9"/>
	<line class="st4" x1="539.44" y1="833.87" x2="476.73" y2="783.55"/>
	<line class="st4" x1="260.68" y1="848.59" x2="219.76" y2="848.59"/>
	<line class="st4" x1="597.59" y1="848.59" x2="591.53" y2="848.59"/>
	<line class="st4" x1="1270.65" y1="848.59" x2="1229.73" y2="848.59"/>
	<line class="st4" x1="1607.56" y1="848.59" x2="1567.76" y2="848.59"/>
	<line class="st4" x1="839.39" y1="1034.28" x2="839.39" y2="911.9"/>
	<line class="st4" x1="839.39" y1="911.9" x2="901.61" y2="911.9"/>
	<line class="st4" x1="901.61" y1="911.9" x2="901.61" y2="1034.28"/>
	<line class="st4" x1="1041.07" y1="1034.28" x2="1041.07" y2="911.9"/>
	<line class="st4" x1="1041.07" y1="911.9" x2="1102.57" y2="911.9"/>
	<line class="st4" x1="1102.57" y1="911.9" x2="1102.57" y2="848.59"/>
	<line class="st4" x1="938.23" y1="963.4" x2="1002.53" y2="963.4"/>
	<line class="st4" x1="765.67" y1="848.59" x2="793.76" y2="826.05"/>
	<line class="st4" x1="1062.77" y1="848.59" x2="1036.8" y2="827.75"/>
	<line class="st4" x1="765.67" y1="848.59" x2="724.74" y2="848.59"/>
	<line class="st4" x1="1062.77" y1="848.59" x2="1087.87" y2="848.59"/>
	<line class="st4" x1="787.37" y1="1034.28" x2="839.39" y2="1034.28"/>
	<line class="st4" x1="901.61" y1="1034.28" x2="1041.07" y2="1034.28"/>
	<line class="st4" x1="724.74" y1="848.59" x2="724.74" y2="911.9"/>
	<line class="st4" x1="724.74" y1="911.9" x2="787.37" y2="911.9"/>
	<line class="st4" x1="787.37" y1="911.9" x2="787.37" y2="1034.28"/>
	<line class="st4" x1="938.23" y1="911.9" x2="938.23" y2="963.4"/>
	<line class="st4" x1="1002.53" y1="911.9" x2="938.23" y2="911.9"/>
	<line class="st4" x1="1002.53" y1="963.4" x2="1002.53" y2="911.9"/>
	<line class="st4" x1="1607.56" y1="1034.04" x2="1607.56" y2="911.65"/>
	<line class="st4" x1="1701.97" y1="1034.04" x2="1607.56" y2="1034.04"/>
	<line class="st4" x1="1701.97" y1="662.9" x2="1701.97" y2="995.2"/>
	<line class="st4" x1="1081.92" y1="477.21" x2="1081.92" y2="354.83"/>
	<line class="st4" x1="1081.92" y1="354.83" x2="1144.14" y2="354.83"/>
	<line class="st4" x1="1144.14" y1="354.83" x2="1144.14" y2="477.21"/>
	<line class="st4" x1="1283.6" y1="354.83" x2="1345.11" y2="354.83"/>
	<line class="st4" x1="1345.11" y1="354.83" x2="1345.11" y2="291.52"/>
	<line class="st4" x1="1180.76" y1="406.33" x2="1245.07" y2="406.33"/>
	<line class="st4" x1="1008.2" y1="291.52" x2="1156.75" y2="172.32"/>
	<line class="st4" x1="1305.31" y1="291.52" x2="1156.75" y2="172.32"/>
	<line class="st4" x1="1008.2" y1="291.52" x2="967.28" y2="291.52"/>
	<line class="st4" x1="967.28" y1="291.52" x2="967.28" y2="354.83"/>
	<line class="st4" x1="967.28" y1="354.83" x2="1029.91" y2="354.83"/>
	<line class="st4" x1="1029.91" y1="354.83" x2="1029.91" y2="452.38"/>
	<line class="st4" x1="1180.76" y1="354.83" x2="1180.76" y2="406.33"/>
	<line class="st4" x1="1245.07" y1="354.83" x2="1180.76" y2="354.83"/>
	<line class="st4" x1="1245.07" y1="406.33" x2="1245.07" y2="354.83"/>
	<line class="st4" x1="597.59" y1="1034.28" x2="597.59" y2="970.48"/>
	<line class="st4" x1="597.59" y1="970.48" x2="597.59" y2="911.37"/>
	<line class="st4" x1="597.59" y1="1034.28" x2="724.74" y2="1034.28"/>
	<line class="st4" x1="597.59" y1="848.59" x2="652.48" y2="848.59"/>
	<line class="st4" x1="724.74" y1="970.48" x2="724.74" y2="1034.28"/>
	<line class="st4" x1="724.74" y1="911.39" x2="724.74" y2="970.48"/>
	<line class="st4" x1="1088.52" y1="848.59" x2="1088.52" y2="726.21"/>
	<line class="st4" x1="1088.52" y1="726.21" x2="1150.74" y2="726.21"/>
	<line class="st4" x1="1150.74" y1="726.21" x2="1150.74" y2="848.59"/>
	<line class="st4" x1="1290.2" y1="726.21" x2="1351.71" y2="726.21"/>
	<line class="st4" x1="1351.71" y1="726.21" x2="1351.71" y2="662.9"/>
	<line class="st4" x1="1187.36" y1="777.71" x2="1251.67" y2="777.71"/>
	<line class="st4" x1="1014.8" y1="662.9" x2="1037.94" y2="644.34"/>
	<line class="st4" x1="1311.91" y1="662.9" x2="1281.25" y2="638.3"/>
	<line class="st4" x1="1311.91" y1="662.9" x2="1333.27" y2="662.9"/>
	<line class="st4" x1="973.88" y1="662.9" x2="973.88" y2="663.38"/>
	<line class="st4" x1="973.88" y1="726.21" x2="1036.51" y2="726.21"/>
	<line class="st4" x1="1036.51" y1="726.21" x2="1036.51" y2="827.17"/>
	<line class="st4" x1="1187.36" y1="726.21" x2="1187.36" y2="777.71"/>
	<line class="st4" x1="1251.67" y1="726.21" x2="1187.36" y2="726.21"/>
	<line class="st4" x1="1251.67" y1="777.71" x2="1251.67" y2="726.21"/>
	<line class="st4" x1="721.48" y1="477.21" x2="648.29" y2="477.21"/>
	<line class="st4" x1="342.97" y1="477.21" x2="342.97" y2="782.04"/>
	<line class="st4" x1="836.12" y1="662.9" x2="836.12" y2="540.52"/>
	<line class="st4" x1="836.12" y1="540.52" x2="898.34" y2="540.52"/>
	<line class="st4" x1="898.34" y1="540.52" x2="898.34" y2="662.9"/>
	<line class="st4" x1="1037.8" y1="540.52" x2="1099.31" y2="540.52"/>
	<line class="st4" x1="1099.31" y1="540.52" x2="1099.31" y2="477.21"/>
	<line class="st4" x1="934.96" y1="592.02" x2="999.27" y2="592.02"/>
	<line class="st4" x1="762.4" y1="477.21" x2="787.34" y2="457.2"/>
	<line class="st4" x1="1059.51" y1="477.21" x2="1029.91" y2="453.46"/>
	<line class="st4" x1="762.4" y1="477.21" x2="721.48" y2="477.21"/>
	<line class="st4" x1="1059.51" y1="477.21" x2="1083.07" y2="477.21"/>
	<line class="st4" x1="721.48" y1="477.21" x2="721.48" y2="540.52"/>
	<line class="st4" x1="721.48" y1="540.52" x2="784.11" y2="540.52"/>
	<line class="st4" x1="784.11" y1="540.52" x2="784.11" y2="638.3"/>
	<line class="st4" x1="934.96" y1="540.52" x2="934.96" y2="592.02"/>
	<line class="st4" x1="999.27" y1="540.52" x2="934.96" y2="540.52"/>
	<line class="st4" x1="999.27" y1="592.02" x2="999.27" y2="540.52"/>
	<line class="st4" x1="517.65" y1="662.9" x2="476.73" y2="662.9"/>
	<line class="st4" x1="1014.8" y1="662.9" x2="973.88" y2="662.9"/>
	<line class="st4" x1="1701.97" y1="662.9" x2="1535.98" y2="662.9"/>
	<line class="st4" x1="1037.94" y1="644.34" x2="1099.62" y2="594.84"/>
	<line class="st4" x1="1037.8" y1="644.06" x2="1037.8" y2="540.52"/>
	<line class="st4" x1="1036.8" y1="827.75" x2="973.88" y2="777.26"/>
	<line class="st4" x1="1087.87" y1="848.59" x2="1102.57" y2="848.59"/>
	<line class="st4" x1="1029.91" y1="453.46" x2="910.95" y2="358.01"/>
	<line class="st4" x1="1083.07" y1="477.21" x2="1099.31" y2="477.21"/>
	<line class="st4" x1="1218.63" y1="477.21" x2="1143.6" y2="477.21"/>
	<line class="st4" x1="1102.57" y1="1034.28" x2="1102.57" y2="970.48"/>
	<line class="st4" x1="1102.57" y1="970.48" x2="1102.57" y2="913.37"/>
	<line class="st4" x1="1102.57" y1="1034.28" x2="1229.73" y2="1034.28"/>
	<line class="st4" x1="1102.57" y1="848.59" x2="1149.84" y2="848.59"/>
	<line class="st4" x1="1229.73" y1="970.48" x2="1229.73" y2="1034.28"/>
	<line class="st4" x1="1305.31" y1="291.52" x2="1345.11" y2="291.52"/>
	<line class="st4" x1="584.77" y1="477.21" x2="584.77" y2="354.83"/>
	<line class="st4" x1="584.77" y1="354.83" x2="646.99" y2="354.83"/>
	<line class="st4" x1="646.99" y1="354.83" x2="646.99" y2="477.21"/>
	<line class="st4" x1="786.45" y1="354.83" x2="847.96" y2="354.83"/>
	<line class="st4" x1="847.96" y1="354.83" x2="847.96" y2="291.52"/>
	<line class="st4" x1="683.62" y1="406.33" x2="747.92" y2="406.33"/>
	<line class="st4" x1="511.05" y1="291.52" x2="659.61" y2="172.32"/>
	<line class="st4" x1="808.16" y1="291.52" x2="659.61" y2="172.32"/>
	<line class="st4" x1="511.05" y1="291.52" x2="470.13" y2="291.52"/>
	<line class="st4" x1="808.16" y1="291.52" x2="847.96" y2="291.52"/>
	<line class="st4" x1="470.13" y1="291.52" x2="470.13" y2="354.83"/>
	<line class="st4" x1="470.13" y1="354.83" x2="532.76" y2="354.83"/>
	<line class="st4" x1="532.76" y1="354.83" x2="532.76" y2="477.21"/>
	<line class="st4" x1="683.62" y1="354.83" x2="683.62" y2="406.33"/>
	<line class="st4" x1="747.92" y1="354.83" x2="683.62" y2="354.83"/>
	<line class="st4" x1="747.92" y1="406.33" x2="747.92" y2="354.83"/>
	<line class="st4" x1="334.4" y1="1034.28" x2="334.4" y2="911.9"/>
	<line class="st4" x1="334.4" y1="911.9" x2="396.62" y2="911.9"/>
	<line class="st4" x1="396.62" y1="911.9" x2="396.62" y2="1034.28"/>
	<line class="st4" x1="536.08" y1="1034.28" x2="536.08" y2="911.9"/>
	<line class="st4" x1="536.08" y1="911.9" x2="597.59" y2="911.9"/>
	<line class="st4" x1="597.59" y1="911.9" x2="597.59" y2="848.59"/>
	<line class="st4" x1="433.24" y1="963.4" x2="497.55" y2="963.4"/>
	<line class="st4" x1="260.68" y1="848.59" x2="343.16" y2="782.41"/>
	<line class="st4" x1="557.79" y1="848.59" x2="539.44" y2="833.87"/>
	<line class="st4" x1="557.79" y1="848.59" x2="591.53" y2="848.59"/>
	<line class="st4" x1="282.39" y1="1034.28" x2="334.4" y2="1034.28"/>
	<line class="st4" x1="396.62" y1="1034.28" x2="536.08" y2="1034.28"/>
	<line class="st4" x1="219.76" y1="911.9" x2="282.39" y2="911.9"/>
	<line class="st4" x1="282.39" y1="911.9" x2="282.39" y2="1034.28"/>
	<line class="st4" x1="433.24" y1="911.9" x2="433.24" y2="963.4"/>
	<line class="st4" x1="497.55" y1="911.9" x2="433.24" y2="911.9"/>
	<line class="st4" x1="497.55" y1="963.4" x2="497.55" y2="911.9"/>
	<line class="st4" x1="1344.37" y1="1034.28" x2="1344.37" y2="911.9"/>
	<line class="st4" x1="1344.37" y1="911.9" x2="1406.59" y2="911.9"/>
	<line class="st4" x1="1406.59" y1="911.9" x2="1406.59" y2="1034.28"/>
	<line class="st4" x1="1443.22" y1="963.4" x2="1507.52" y2="963.4"/>
	<line class="st4" x1="1270.65" y1="848.59" x2="1291.15" y2="832.14"/>
	<line class="st4" x1="1567.76" y1="848.59" x2="1419.21" y2="729.39"/>
	<line class="st4" x1="1292.36" y1="1034.28" x2="1344.37" y2="1034.28"/>
	<line class="st4" x1="1406.59" y1="1034.28" x2="1546.05" y2="1034.28"/>
	<line class="st4" x1="1229.73" y1="848.59" x2="1229.73" y2="911.9"/>
	<line class="st4" x1="1229.73" y1="911.9" x2="1292.36" y2="911.9"/>
	<line class="st4" x1="1292.36" y1="911.9" x2="1292.36" y2="1034.28"/>
	<line class="st4" x1="1546.05" y1="1034.28" x2="1546.05" y2="911.9"/>
	<line class="st4" x1="1546.05" y1="911.9" x2="1607.56" y2="911.9"/>
	<line class="st4" x1="1607.56" y1="911.9" x2="1607.56" y2="848.59"/>
	<line class="st4" x1="1443.22" y1="911.9" x2="1443.22" y2="963.4"/>
	<line class="st4" x1="1507.52" y1="911.9" x2="1443.22" y2="911.9"/>
	<line class="st4" x1="1507.52" y1="963.4" x2="1507.52" y2="911.9"/>
	<line class="st4" x1="591.37" y1="848.59" x2="591.37" y2="726.21"/>
	<line class="st4" x1="591.37" y1="726.21" x2="653.59" y2="726.21"/>
	<line class="st4" x1="653.59" y1="726.21" x2="653.59" y2="848.59"/>
	<line class="st4" x1="793.05" y1="726.21" x2="854.56" y2="726.21"/>
	<line class="st4" x1="854.56" y1="726.21" x2="854.56" y2="662.9"/>
	<line class="st4" x1="690.22" y1="777.71" x2="754.52" y2="777.71"/>
	<line class="st4" x1="517.65" y1="662.9" x2="666.21" y2="543.7"/>
	<line class="st4" x1="814.76" y1="662.9" x2="784.11" y2="638.3"/>
	<line class="st4" x1="814.76" y1="662.9" x2="835.28" y2="662.9"/>
	<line class="st4" x1="476.73" y1="662.9" x2="476.73" y2="726.21"/>
	<line class="st4" x1="476.73" y1="726.21" x2="539.36" y2="726.21"/>
	<line class="st4" x1="539.36" y1="726.21" x2="539.36" y2="833.71"/>
	<line class="st4" x1="690.22" y1="726.21" x2="690.22" y2="777.71"/>
	<line class="st4" x1="754.52" y1="726.21" x2="690.22" y2="726.21"/>
	<line class="st4" x1="754.52" y1="777.71" x2="754.52" y2="726.21"/>
	<line class="st4" x1="1333.27" y1="662.9" x2="1333.27" y2="540.52"/>
	<line class="st4" x1="1333.27" y1="540.52" x2="1395.49" y2="540.52"/>
	<line class="st4" x1="1395.49" y1="540.52" x2="1395.49" y2="662.9"/>
	<line class="st4" x1="1534.95" y1="662.9" x2="1534.95" y2="540.52"/>
	<line class="st4" x1="1534.95" y1="540.52" x2="1596.46" y2="540.52"/>
	<line class="st4" x1="1596.46" y1="540.52" x2="1596.46" y2="477.21"/>
	<line class="st4" x1="1432.11" y1="592.02" x2="1496.41" y2="592.02"/>
	<line class="st4" x1="1259.55" y1="477.21" x2="1284.65" y2="457.07"/>
	<line class="st4" x1="1556.65" y1="477.21" x2="1408.1" y2="358.01"/>
	<line class="st4" x1="1259.55" y1="477.21" x2="1218.63" y2="477.21"/>
	<line class="st4" x1="1556.65" y1="477.21" x2="1596.46" y2="477.21"/>
	<line class="st4" x1="1218.63" y1="477.21" x2="1218.63" y2="540.52"/>
	<line class="st4" x1="1218.63" y1="540.52" x2="1281.25" y2="540.52"/>
	<line class="st4" x1="1281.25" y1="540.52" x2="1281.25" y2="638.3"/>
	<line class="st4" x1="1432.11" y1="540.52" x2="1432.11" y2="592.02"/>
	<line class="st4" x1="1496.41" y1="540.52" x2="1432.11" y2="540.52"/>
	<line class="st4" x1="1496.41" y1="592.02" x2="1496.41" y2="540.52"/>
	<line class="st4" x1="1229.73" y1="910.73" x2="1229.73" y2="970.48"/>
	<line class="st4" x1="1218.63" y1="540.21" x2="1218.63" y2="587.9"/>
	<line class="st4" x1="854.56" y1="776.77" x2="854.56" y2="726"/>
	<rect x="433.24" y="911.9" class="st4" width="64.3" height="51.5"/>
	<polygon class="st4" points="765.67,848.59 724.74,848.59 724.74,911.9 787.37,911.9 787.37,1034.28 839.39,1034.28 839.39,911.9 
		901.61,911.9 901.61,1034.28 1041.07,1034.28 1041.07,911.9 1102.57,911.9 1102.57,848.59 1062.77,848.59 914.22,729.39 	"/>
	<rect x="938.23" y="911.9" class="st4" width="64.3" height="51.5"/>
	<polygon class="st4" points="1270.65,848.59 1229.73,848.59 1229.73,911.9 1292.36,911.9 1292.36,1034.28 1344.37,1034.28 
		1344.37,911.9 1406.59,911.9 1406.59,1034.28 1546.05,1034.28 1546.05,911.9 1607.56,911.9 1607.56,848.59 1567.76,848.59 
		1419.21,729.39 	"/>
	<rect x="1443.22" y="911.9" class="st4" width="64.3" height="51.5"/>
	<rect x="1187.36" y="726.21" class="st4" width="64.3" height="51.5"/>
	<rect x="690.22" y="726.21" class="st4" width="64.3" height="51.5"/>
	<rect x="934.96" y="540.52" class="st4" width="64.3" height="51.5"/>
	<rect x="1432.11" y="540.52" class="st4" width="64.3" height="51.5"/>
	<rect x="1180.76" y="354.83" class="st4" width="64.3" height="51.5"/>
	<rect x="683.62" y="354.83" class="st4" width="64.3" height="51.5"/>
	<polyline class="st4" points="786.45,457.91 786.45,354.83 847.96,354.83 847.96,291.52 808.16,291.52 659.61,172.32 
		511.05,291.52 470.13,291.52 470.13,354.83 532.76,354.83 532.76,477.21 584.77,477.21 584.77,354.83 646.99,354.83 646.99,477.21 
		762.4,477.21 	"/>
	<polyline class="st4" points="1037.8,644.45 1037.8,540.52 1099.31,540.52 1099.31,477.21 1059.51,477.21 910.95,358.01 
		762.4,477.21 721.48,477.21 721.48,540.52 784.11,540.52 784.11,638.3 	"/>
	<polyline class="st4" points="814.76,662.9 836.12,662.9 836.12,540.52 898.34,540.52 898.34,662.9 1014.8,662.9 	"/>
	<polyline class="st4" points="1059.51,477.21 1081.92,477.21 1081.92,354.83 1144.14,354.83 1144.14,477.21 1259.55,477.21 	"/>
	<polyline class="st4" points="1283.6,457.91 1283.6,354.83 1345.11,354.83 1345.11,291.52 1305.31,291.52 1156.75,172.32 
		1008.2,291.52 967.28,291.52 967.28,354.83 1029.91,354.83 1029.91,453.46 	"/>
	<polyline class="st4" points="1311.91,662.9 1333.27,662.9 1333.27,540.52 1395.49,540.52 1395.49,662.9 1534.95,662.9 
		1534.95,540.52 1596.46,540.52 1596.46,477.21 1556.65,477.21 1408.1,358.01 1259.55,477.21 1218.63,477.21 1218.63,540.52 
		1281.25,540.52 1281.25,638.3 	"/>
	<polyline class="st4" points="1290.2,832.9 1290.2,726.21 1351.71,726.21 1351.71,662.9 1311.91,662.9 1163.35,543.7 1014.8,662.9 
		973.88,662.9 973.88,726.21 1036.51,726.21 1036.51,827.52 	"/>
	<polyline class="st4" points="1062.77,848.59 1088.52,848.59 1088.52,726.21 1150.74,726.21 1150.74,848.59 1270.65,848.59 	"/>
	<polyline class="st4" points="793.05,826.62 793.05,726.21 854.56,726.21 854.56,662.9 814.76,662.9 666.21,543.7 517.65,662.9 
		476.73,662.9 476.73,726.21 539.36,726.21 539.36,833.8 	"/>
	<polyline class="st4" points="557.79,848.59 591.37,848.59 591.37,726.21 653.59,726.21 653.59,848.59 765.67,848.59 	"/>
	<polygon class="st4" points="260.68,848.59 219.76,848.59 219.76,911.9 282.39,911.9 282.39,1034.28 334.4,1034.28 334.4,911.9 
		396.62,911.9 396.62,1034.28 536.08,1034.28 536.08,911.9 597.59,911.9 597.59,848.59 557.79,848.59 409.23,729.39 	"/>
</g>


</svg>
